HIERARCHY
ROOT mixamorig:Hips
{
	OFFSET 0.000000 201.639420 0.000000
	CHANNELS 6 Xposition Yposition Zposition Xrotation Yrotation Zrotation
	JOINT mixamorig:Spine
	{
		OFFSET 0.006200 19.524994 -2.481800
		CHANNELS 3 Xrotation Yrotation Zrotation
		JOINT mixamorig:Spine1
		{
			OFFSET -0.000900 22.835007 -2.825400
			CHANNELS 3 Xrotation Yrotation Zrotation
			JOINT mixamorig:Spine2
			{
				OFFSET -0.020600 26.552490 -3.193300
				CHANNELS 3 Xrotation Yrotation Zrotation
				JOINT mixamorig:Neck
				{
					OFFSET -0.060000 30.701813 1.352200
					CHANNELS 3 Xrotation Yrotation Zrotation
					JOINT mixamorig:Head
					{
						OFFSET -0.087200 22.547607 3.670900
						CHANNELS 3 Xrotation Yrotation Zrotation
						JOINT mixamorig:HeadTop_End
						{
							OFFSET -0.830600 40.355194 7.893500
							CHANNELS 3 Xrotation Yrotation Zrotation
							End Site
							{
								OFFSET 0.000000 30.592346 0.000000
							}
						}
						JOINT mixamorig:RightEye
						{
							OFFSET -6.302100 18.118591 16.197100
							CHANNELS 3 Xrotation Yrotation Zrotation
							End Site
							{
								OFFSET 0.000000 30.592346 0.000000
							}
						}
						JOINT mixamorig:LeftEye
						{
							OFFSET 6.741500 18.382690 16.401899
							CHANNELS 3 Xrotation Yrotation Zrotation
							End Site
							{
								OFFSET 0.000000 30.592346 0.000000
							}
						}
					}
				}
				JOINT mixamorig:LeftShoulder
				{
					OFFSET 11.924900 18.230499 1.425400
					CHANNELS 3 Xrotation Yrotation Zrotation
					JOINT mixamorig:LeftArm
					{
						OFFSET 25.435989 -0.697632 -5.229300
						CHANNELS 3 Xrotation Yrotation Zrotation
						JOINT mixamorig:LeftForeArm
						{
							OFFSET 54.684776 0.000000 0.000000
							CHANNELS 3 Xrotation Yrotation Zrotation
							JOINT mixamorig:LeftHand
							{
								OFFSET 55.098175 0.000000 0.000000
								CHANNELS 3 Xrotation Yrotation Zrotation
								JOINT mixamorig:LeftHandMiddle1
								{
									OFFSET 23.369751 0.000000 0.000000
									CHANNELS 3 Xrotation Yrotation Zrotation
									JOINT mixamorig:LeftHandMiddle2
									{
										OFFSET 6.378677 0.000000 0.000000
										CHANNELS 3 Xrotation Yrotation Zrotation
										JOINT mixamorig:LeftHandMiddle3
										{
											OFFSET 6.148331 0.000000 0.000000
											CHANNELS 3 Xrotation Yrotation Zrotation
											JOINT mixamorig:LeftHandMiddle4
											{
												OFFSET 6.582504 0.000000 0.000000
												CHANNELS 3 Xrotation Yrotation Zrotation
												End Site
												{
													OFFSET -1.168900 6.395691 1.028606
												}
											}
										}
									}
								}
								JOINT mixamorig:LeftHandThumb1
								{
									OFFSET 7.235672 -3.848206 5.434273
									CHANNELS 3 Xrotation Yrotation Zrotation
									JOINT mixamorig:LeftHandThumb2
									{
										OFFSET 6.568451 -3.792297 3.792300
										CHANNELS 3 Xrotation Yrotation Zrotation
										JOINT mixamorig:LeftHandThumb3
										{
											OFFSET 6.063080 -3.500519 3.500518
											CHANNELS 3 Xrotation Yrotation Zrotation
											JOINT mixamorig:LeftHandThumb4
											{
												OFFSET 4.793182 -2.767334 2.767349
												CHANNELS 3 Xrotation Yrotation Zrotation
												End Site
												{
													OFFSET 0.101639 6.054260 1.275483
												}
											}
										}
									}
								}
								JOINT mixamorig:LeftHandIndex1
								{
									OFFSET 23.101074 -0.309540 4.992809
									CHANNELS 3 Xrotation Yrotation Zrotation
									JOINT mixamorig:LeftHandIndex2
									{
										OFFSET 6.226883 0.000000 0.000000
										CHANNELS 3 Xrotation Yrotation Zrotation
										JOINT mixamorig:LeftHandIndex3
										{
											OFFSET 6.094330 0.000000 0.000000
											CHANNELS 3 Xrotation Yrotation Zrotation
											JOINT mixamorig:LeftHandIndex4
											{
												OFFSET 5.482605 0.000000 0.000000
												CHANNELS 3 Xrotation Yrotation Zrotation
												End Site
												{
													OFFSET -1.427902 5.233032 0.797164
												}
											}
										}
									}
								}
								JOINT mixamorig:LeftHandRing1
								{
									OFFSET 22.299240 0.021149 -3.964172
									CHANNELS 3 Xrotation Yrotation Zrotation
									JOINT mixamorig:LeftHandRing2
									{
										OFFSET 6.321869 0.000000 0.000000
										CHANNELS 3 Xrotation Yrotation Zrotation
										JOINT mixamorig:LeftHandRing3
										{
											OFFSET 5.899796 0.000000 0.000000
											CHANNELS 3 Xrotation Yrotation Zrotation
											JOINT mixamorig:LeftHandRing4
											{
												OFFSET 6.517899 0.000000 0.000000
												CHANNELS 3 Xrotation Yrotation Zrotation
												End Site
												{
													OFFSET -1.637299 6.232208 0.980890
												}
											}
										}
									}
								}
								JOINT mixamorig:LeftHandPinky1
								{
									OFFSET 20.463791 -0.302338 -8.562233
									CHANNELS 3 Xrotation Yrotation Zrotation
									JOINT mixamorig:LeftHandPinky2
									{
										OFFSET 6.908646 0.000000 0.000000
										CHANNELS 3 Xrotation Yrotation Zrotation
										JOINT mixamorig:LeftHandPinky3
										{
											OFFSET 4.622849 0.000000 0.000000
											CHANNELS 3 Xrotation Yrotation Zrotation
											JOINT mixamorig:LeftHandPinky4
											{
												OFFSET 5.216080 0.000000 0.000000
												CHANNELS 3 Xrotation Yrotation Zrotation
												End Site
												{
													OFFSET -0.606308 5.116241 0.814926
												}
											}
										}
									}
								}
							}
						}
					}
				}
				JOINT mixamorig:RightShoulder
				{
					OFFSET -12.001300 18.284088 1.348900
					CHANNELS 3 Xrotation Yrotation Zrotation
					JOINT mixamorig:RightArm
					{
						OFFSET -25.308500 -0.751312 -5.164599
						CHANNELS 3 Xrotation Yrotation Zrotation
						JOINT mixamorig:RightForeArm
						{
							OFFSET -54.684429 0.000000 0.000000
							CHANNELS 3 Xrotation Yrotation Zrotation
							JOINT mixamorig:RightHand
							{
								OFFSET -55.150291 0.000000 0.000000
								CHANNELS 3 Xrotation Yrotation Zrotation
								JOINT mixamorig:RightHandMiddle1
								{
									OFFSET -23.317566 0.000000 0.000000
									CHANNELS 3 Xrotation Yrotation Zrotation
									JOINT mixamorig:RightHandMiddle2
									{
										OFFSET -6.378403 0.000000 0.000000
										CHANNELS 3 Xrotation Yrotation Zrotation
										JOINT mixamorig:RightHandMiddle3
										{
											OFFSET -6.148193 0.000000 0.000000
											CHANNELS 3 Xrotation Yrotation Zrotation
											JOINT mixamorig:RightHandMiddle4
											{
												OFFSET -6.583389 0.000000 0.000000
												CHANNELS 3 Xrotation Yrotation Zrotation
												End Site
												{
													OFFSET 1.171692 6.395905 1.029786
												}
											}
										}
									}
								}
								JOINT mixamorig:RightHandThumb1
								{
									OFFSET -7.190521 -3.860474 5.435846
									CHANNELS 3 Xrotation Yrotation Zrotation
									JOINT mixamorig:RightHandThumb2
									{
										OFFSET -6.567429 -3.791718 3.791708
										CHANNELS 3 Xrotation Yrotation Zrotation
										JOINT mixamorig:RightHandThumb3
										{
											OFFSET -6.062469 -3.500153 3.500166
											CHANNELS 3 Xrotation Yrotation Zrotation
											JOINT mixamorig:RightHandThumb4
											{
												OFFSET -4.792618 -2.767029 2.767022
												CHANNELS 3 Xrotation Yrotation Zrotation
												End Site
												{
													OFFSET -0.100327 6.053253 1.276754
												}
											}
										}
									}
								}
								JOINT mixamorig:RightHandIndex1
								{
									OFFSET -23.048981 -0.310791 4.992554
									CHANNELS 3 Xrotation Yrotation Zrotation
									JOINT mixamorig:RightHandIndex2
									{
										OFFSET -6.227539 0.000000 0.000000
										CHANNELS 3 Xrotation Yrotation Zrotation
										JOINT mixamorig:RightHandIndex3
										{
											OFFSET -6.095047 0.000000 0.000000
											CHANNELS 3 Xrotation Yrotation Zrotation
											JOINT mixamorig:RightHandIndex4
											{
												OFFSET -5.484772 0.000000 0.000000
												CHANNELS 3 Xrotation Yrotation Zrotation
												End Site
												{
													OFFSET 1.420593 5.237305 0.797056
												}
											}
										}
									}
								}
								JOINT mixamorig:RightHandRing1
								{
									OFFSET -22.246323 0.020569 -3.963762
									CHANNELS 3 Xrotation Yrotation Zrotation
									JOINT mixamorig:RightHandRing2
									{
										OFFSET -6.322128 0.000000 0.000000
										CHANNELS 3 Xrotation Yrotation Zrotation
										JOINT mixamorig:RightHandRing3
										{
											OFFSET -5.900024 0.000000 0.000000
											CHANNELS 3 Xrotation Yrotation Zrotation
											JOINT mixamorig:RightHandRing4
											{
												OFFSET -6.518356 0.000000 0.000000
												CHANNELS 3 Xrotation Yrotation Zrotation
												End Site
												{
													OFFSET 1.636398 6.232697 0.982186
												}
											}
										}
									}
								}
								JOINT mixamorig:RightHandPinky1
								{
									OFFSET -20.411011 -0.303314 -8.561701
									CHANNELS 3 Xrotation Yrotation Zrotation
									JOINT mixamorig:RightHandPinky2
									{
										OFFSET -6.907349 0.000000 0.000000
										CHANNELS 3 Xrotation Yrotation Zrotation
										JOINT mixamorig:RightHandPinky3
										{
											OFFSET -4.623840 0.000000 0.000000
											CHANNELS 3 Xrotation Yrotation Zrotation
											JOINT mixamorig:RightHandPinky4
											{
												OFFSET -5.218353 0.000000 0.000000
												CHANNELS 3 Xrotation Yrotation Zrotation
												End Site
												{
													OFFSET 0.602097 5.118835 0.816273
												}
											}
										}
									}
								}
							}
						}
					}
				}
			}
		}
	}
	JOINT mixamorig:LeftUpLeg
	{
		OFFSET 18.168400 -13.561905 -0.039000
		CHANNELS 3 Xrotation Yrotation Zrotation
		JOINT mixamorig:LeftLeg
		{
			OFFSET 0.577358 -80.825211 -3.695000
			CHANNELS 3 Xrotation Yrotation Zrotation
			JOINT mixamorig:LeftFoot
			{
				OFFSET -0.577356 -83.370262 -6.520700
				CHANNELS 3 Xrotation Yrotation Zrotation
				JOINT mixamorig:LeftToeBase
				{
					OFFSET 0.750401 -20.798306 25.135401
					CHANNELS 3 Xrotation Yrotation Zrotation
					JOINT mixamorig:LeftToe_End
					{
						OFFSET -0.000500 0.001200 19.917799
						CHANNELS 3 Xrotation Yrotation Zrotation
						End Site
						{
							OFFSET 0.000000 19.917805 0.000000
						}
					}
				}
			}
		}
	}
	JOINT mixamorig:RightUpLeg
	{
		OFFSET -18.162500 -13.585098 -0.041000
		CHANNELS 3 Xrotation Yrotation Zrotation
		JOINT mixamorig:RightLeg
		{
			OFFSET -0.595024 -80.945297 -3.631900
			CHANNELS 3 Xrotation Yrotation Zrotation
			JOINT mixamorig:RightFoot
			{
				OFFSET 0.595024 -83.218193 -6.561200
				CHANNELS 3 Xrotation Yrotation Zrotation
				JOINT mixamorig:RightToeBase
				{
					OFFSET -0.753601 -20.807106 25.115000
					CHANNELS 3 Xrotation Yrotation Zrotation
					JOINT mixamorig:RightToe_End
					{
						OFFSET 0.000299 0.001700 19.918200
						CHANNELS 3 Xrotation Yrotation Zrotation
						End Site
						{
							OFFSET 0.000000 19.918203 0.000000
						}
					}
				}
			}
		}
	}
}
MOTION
Frames: 4
Frame Time: 0.033333
-5.711891 24.352829 -15.808670 -71.520161 12.452035 9.518735 10.499821 -1.806576 -0.571960 21.019634 -3.316717 -0.311194 21.019644 -3.316714 -0.311194 25.778522 0.195224 5.667945 0.500582 -2.654474 4.064567 -0.000001 -0.000000 -0.000000 -0.000001 -0.000000 -0.000000 -0.000001 -0.000000 -0.000000 2.684258 -12.450375 12.240767 64.576672 -11.918071 -83.648753 -0.760237 -55.695838 1.116597 46.785918 4.754946 88.117206 -2.022004 -4.469977 -24.450236 -0.632806 -0.279430 -9.650393 -0.000002 0.000007 0.000002 -0.000000 0.000000 -0.000001 -26.395628 -8.930261 -15.955050 -9.106255 4.525106 1.618525 -0.000002 0.000010 0.000002 -0.000001 -0.000000 -0.000000 -4.807567 -14.926712 -15.192526 -1.650216 -0.338253 -21.520847 -0.000013 0.000022 -0.000002 0.000000 -0.000000 0.000001 2.256860 5.624900 -27.362822 0.287482 -1.598988 -13.031800 -0.000001 -0.000000 -0.000004 -0.000000 0.000001 0.000003 14.403274 22.222109 -35.475494 -0.180485 -4.590163 -20.995761 -0.000007 0.000014 0.000002 -0.000001 0.000000 0.000000 1.454072 2.009789 -12.728534 51.978365 26.515144 74.998865 -3.541707 46.351259 0.459736 55.539161 7.608943 -74.144135 -2.588394 0.652498 15.975917 -0.167232 -0.284727 3.366333 0.000006 0.000013 -0.000000 0.000001 -0.000000 0.000002 -13.195143 14.598443 3.602212 -25.437306 -11.661785 -12.924018 0.000000 0.000008 -0.000000 -0.000001 0.000000 0.000000 -5.801400 7.410560 9.011735 -0.117203 -0.020740 14.927197 0.000002 0.000002 -0.000000 -0.000000 -0.000001 0.000000 1.364717 -7.856186 12.521595 0.234327 1.737072 11.738026 -0.000000 0.000003 0.000001 -0.000000 -0.000000 0.000003 5.491718 -14.873058 9.789672 0.788339 7.067371 23.752517 0.000000 0.000002 0.000000 0.000000 -0.000000 -0.000001 -61.176536 2.745132 9.933726 63.987835 13.990642 -1.603904 0.870238 -3.553324 3.366686 -2.247660 -0.029796 0.067662 -0.000002 0.000001 0.000001 -59.959587 1.626515 -13.686604 68.000967 0.218904 2.320085 39.791849 -3.629398 -0.891416 -2.826197 -0.169257 0.434194 -0.000002 0.000000 -0.000000 
-5.641678 24.343048 -15.736450 -71.765125 12.355237 9.512969 10.520237 -1.842578 -0.605339 21.060806 -3.388546 -0.358690 21.060817 -3.388543 -0.358689 25.637047 0.237880 5.936320 0.749862 -2.281280 3.692052 -0.000001 -0.000000 0.000000 -0.000001 -0.000000 0.000000 -0.000001 -0.000000 0.000000 2.684256 -12.450374 12.240767 64.963568 -11.743376 -83.788273 -0.450790 -56.093615 1.153406 46.631112 4.961815 88.087939 -2.117178 -4.340946 -25.389008 -0.684446 -0.328572 -10.307991 -0.000003 0.000005 0.000001 -0.000000 -0.000000 -0.000001 -26.395630 -8.930269 -15.955052 -9.106252 4.525105 1.618523 -0.000001 0.000009 0.000003 0.000003 0.000001 0.000000 -4.860045 -14.402784 -15.682592 -1.798642 -0.398223 -22.699982 -0.000011 0.000022 -0.000001 -0.000000 0.000001 -0.000000 2.615760 5.980579 -29.266322 0.294629 -1.623759 -13.328320 -0.000001 0.000001 0.000000 -0.000001 0.000002 0.000001 15.261899 21.644190 -37.965873 -0.187038 -4.583553 -20.908649 -0.000008 0.000013 0.000001 0.000000 -0.000002 -0.000000 1.454075 2.009788 -12.728534 52.301859 26.193139 74.657287 -3.115859 47.057527 0.274884 55.768249 7.641651 -73.661336 -2.511335 0.573448 15.421263 -0.166919 -0.285000 3.361591 0.000006 0.000013 0.000002 0.000001 -0.000000 -0.000002 -12.479179 14.684690 3.477134 -26.187965 -11.956959 -13.557094 0.000004 0.000009 -0.000001 -0.000002 -0.000000 0.000000 -5.708162 7.385062 8.655263 -0.117204 -0.020737 14.927197 0.000003 0.000002 0.000001 -0.000000 0.000000 0.000001 1.339844 -7.901790 11.884606 0.234206 1.736481 11.732591 0.000002 0.000003 -0.000001 -0.000000 -0.000000 0.000003 5.382658 -15.365214 8.837256 0.792012 7.083989 23.865142 0.000000 0.000003 0.000002 -0.000001 0.000000 0.000000 -60.821749 2.906016 9.920101 63.471561 13.139932 -1.631887 3.388635 -3.596106 4.057009 -2.161575 -0.029693 0.067437 -0.000000 -0.000001 -0.000002 -59.676428 1.810137 -13.471286 68.056066 0.203611 2.320632 39.825276 -3.654304 -0.634962 -2.775001 -0.169585 0.434438 -0.000001 -0.000000 0.000000 
-5.753372 24.319412 -15.735352 -71.707793 12.417749 9.589642 10.445261 -1.993903 -0.681370 20.912501 -3.685138 -0.461766 20.912511 -3.685134 -0.461767 25.485026 0.319211 6.267274 1.211988 -1.530678 2.945972 0.000000 -0.000000 -0.000000 0.000000 -0.000000 -0.000000 0.000000 -0.000000 -0.000000 2.684260 -12.450373 12.240767 65.288440 -11.771377 -84.228759 -0.426158 -55.979250 0.989635 46.353663 5.076661 88.392395 -2.249847 -3.988319 -27.279615 -0.723162 -0.364661 -10.796443 -0.000001 0.000007 0.000001 -0.000002 -0.000001 0.000000 -26.395628 -8.930261 -15.955050 -9.106248 4.525103 1.618524 0.000002 0.000007 0.000001 0.000000 -0.000000 -0.000000 -5.072496 -13.323863 -17.093310 -1.862242 -0.422898 -23.202031 -0.000012 0.000021 -0.000003 -0.000000 -0.000002 0.000000 3.111267 6.302837 -32.260541 0.303466 -1.655058 -13.702899 -0.000001 -0.000003 0.000003 -0.000002 -0.000001 -0.000004 16.577516 20.487622 -42.106398 -0.209139 -4.561544 -20.615901 -0.000010 0.000013 0.000002 0.000000 -0.000005 -0.000001 1.454075 2.009788 -12.728532 52.657955 25.801671 74.128951 -2.349554 47.972653 -0.190425 56.328311 7.761466 -72.881793 -2.557826 0.608573 15.790663 -0.170209 -0.281930 3.409617 0.000007 0.000013 0.000004 0.000001 0.000000 0.000001 -11.746497 15.010586 3.357995 -26.868776 -12.224638 -14.130095 0.000001 0.000009 -0.000001 -0.000002 0.000000 -0.000000 -5.700831 7.220721 8.882788 -0.117202 -0.020740 14.927196 0.000003 0.000002 -0.000002 0.000001 0.000000 -0.000001 1.345570 -7.939620 11.931468 0.234088 1.735931 11.727468 0.000003 0.000003 0.000001 -0.000000 -0.000000 0.000001 5.328351 -15.387194 8.521379 0.791477 7.081547 23.848528 0.000001 0.000004 0.000005 0.000001 -0.000000 -0.000002 -61.000754 2.595852 9.829915 63.572491 12.697543 -1.645176 3.948961 -2.988225 3.163256 -2.232696 -0.029788 0.067590 0.000001 0.000001 0.000000 -59.663041 2.140082 -13.288191 67.989820 0.194459 2.318005 40.015886 -3.945115 -0.267230 -2.753666 -0.169718 0.434557 0.000001 -0.000000 0.000000 
-6.378071 24.289993 -15.964600 -71.241831 12.700829 9.946720 10.257204 -2.367095 -0.883062 20.537928 -4.436640 -0.776658 20.537926 -4.436644 -0.776656 25.182610 0.434466 6.546734 1.746797 -0.326077 1.734772 -0.000001 0.000000 0.000000 -0.000001 0.000000 0.000000 -0.000001 0.000000 0.000000 2.684258 -12.450373 12.240768 65.340691 -12.256090 -85.214519 -1.155540 -54.824265 0.367512 45.743365 5.009547 89.435009 -2.403839 -3.544046 -29.849839 -0.739278 -0.379507 -10.998472 -0.000002 0.000007 0.000001 0.000002 -0.000003 -0.000001 -26.395626 -8.930264 -15.955052 -9.106248 4.525104 1.618524 0.000000 0.000008 0.000002 -0.000002 0.000001 -0.000000 -5.252462 -12.185753 -18.619702 -1.893608 -0.434883 -23.448810 -0.000012 0.000022 0.000001 -0.000001 0.000000 0.000002 3.226405 6.136452 -34.447823 0.307823 -1.670776 -13.890509 -0.000003 -0.000001 0.000003 -0.000000 -0.000002 0.000002 17.928027 19.296326 -46.263101 -0.240583 -4.530606 -20.201994 -0.000006 0.000010 0.000002 -0.000003 0.000002 -0.000000 1.454073 2.009788 -12.728533 52.667677 25.577329 73.331862 -1.496264 48.965312 -0.925865 57.092622 8.022025 -71.480532 -2.692194 0.734606 16.768579 -0.165568 -0.286210 3.341431 0.000006 0.000012 0.000002 0.000002 0.000000 -0.000002 -11.864892 15.355753 3.253367 -26.766967 -12.184674 -14.044284 0.000001 0.000009 -0.000001 0.000001 -0.000000 -0.000000 -5.769299 7.091762 9.386673 -0.117204 -0.020739 14.927194 0.000002 0.000000 -0.000003 -0.000000 -0.000001 -0.000001 1.383261 -7.955596 12.690026 0.233992 1.735426 11.723083 0.000003 0.000003 -0.000006 -0.000000 0.000000 -0.000002 5.449387 -14.751899 9.624910 0.785036 7.052501 23.651794 0.000000 0.000002 -0.000000 0.000000 0.000001 -0.000002 -62.194343 1.749398 9.955393 65.375490 13.339851 -1.620965 -0.685060 -1.042600 -0.894141 -3.671651 -0.032191 0.070716 -0.000002 0.000001 0.000000 -59.944260 2.816344 -13.095050 67.617152 0.179391 2.306171 40.524052 -4.550103 0.285798 -2.878695 -0.166063 0.428125 0.000002 -0.000000 0.000000 
